<svg width="18" height="19" viewBox="0 0 18 19" fill="none" xmlns="http://www.w3.org/2000/svg">
<path d="M17.8016 3.7483C17.6876 3.50169 17.5321 3.27617 17.3421 3.08108L14.9544 0.675676C14.522 0.243243 13.9359 0 13.3244 0H4.65712C4.04563 0 3.45947 0.243243 3.02704 0.675676L0.657094 3.04562C0.46706 3.23988 0.311646 3.46538 0.197635 3.712C0.0717904 3.99578 0.00506811 4.30238 0 4.61319V15.712C0 16.9789 1.02112 18.0084 2.288 18.0186H15.6934C16.967 18.0186 18 16.9857 18 15.712V4.67568C17.9983 4.35641 17.9308 4.04054 17.8016 3.7483ZM3.91898 1.56755C4.11323 1.36907 4.38012 1.25842 4.65716 1.26179H13.3244C13.6014 1.25842 13.8683 1.36906 14.0626 1.56755L15.8641 3.36906L2.12594 3.3699L3.91898 1.56755ZM16.7475 15.712C16.7424 16.2905 16.272 16.7567 15.6935 16.7567H2.28806C1.7095 16.7567 1.23906 16.2905 1.234 15.712V4.67565V4.61231L16.7298 4.61315V4.6765L16.7475 15.712ZM11.8016 11.2078C11.9274 11.3235 11.9992 11.4865 11.9992 11.6579C11.9992 11.8294 11.9274 11.9924 11.8016 12.1081L9.43249 14.4772V14.478C9.37675 14.5388 9.30918 14.5878 9.23401 14.6216C9.07776 14.6824 8.90378 14.6824 8.74752 14.6216C8.67235 14.5878 8.60479 14.5388 8.54904 14.478L6.17996 12.1081C5.93082 11.8598 5.93082 11.456 6.17996 11.2077C6.42911 10.9586 6.83198 10.9586 7.08115 11.2077L8.35987 12.5227V7.33356C8.35987 6.98558 8.64282 6.70264 8.99079 6.70264C9.33877 6.70264 9.62171 6.98558 9.62171 7.33356V12.5227L10.919 11.2255C11.0339 11.1055 11.1935 11.038 11.3599 11.038C11.5271 11.038 11.6859 11.1055 11.8016 11.2255L11.8016 11.2078Z" fill="#005BE6"/>
</svg>
